<svg width="52" height="52" viewBox="0 0 52 52" fill="none" xmlns="http://www.w3.org/2000/svg">
<circle cx="25.6638" cy="25.7155" r="25.4521" transform="rotate(-0.2397 25.6638 25.7155)" fill="white"/>
<path d="M37 17.0101C36.0424 17.6855 34.9821 18.2022 33.86 18.5401C33.2577 17.8476 32.4573 17.3567 31.567 17.134C30.6767 16.9112 29.7395 16.9673 28.8821 17.2945C28.0247 17.6218 27.2884 18.2045 26.773 18.9638C26.2575 19.7231 25.9877 20.6224 26 21.5401V22.5401C24.2426 22.5856 22.5013 22.1959 20.931 21.4055C19.3607 20.6151 18.0103 19.4487 17 18.0101C17 18.0101 13 27.0101 22 31.0101C19.9405 32.408 17.4872 33.109 15 33.0101C24 38.0101 35 33.0101 35 21.5101C34.9991 21.2315 34.9723 20.9537 34.92 20.6801C35.9406 19.6735 36.6608 18.4028 37 17.0101V17.0101Z" stroke="#FF4948" stroke-width="2" stroke-linecap="round" stroke-linejoin="round"/>
</svg>
